<?xml version="1.0" standalone="no"?><!DOCTYPE svg PUBLIC "-//W3C//DTD SVG 1.1//EN" "http://www.w3.org/Graphics/SVG/1.1/DTD/svg11.dtd"><svg class="icon" width="32px" height="31.51px" viewBox="0 0 1040 1024" version="1.1" xmlns="http://www.w3.org/2000/svg"><path fill="#0ea800" d="M753.822604 269.669836 270.422989 269.669836c-149.191904 0-270.134417 120.942513-270.134417 270.133394 0 149.191904 120.942513 270.13544 270.134417 270.13544l483.400638 0c149.187811 0 270.134417-120.943536 270.134417-270.13544C1023.957021 390.612349 903.010415 269.669836 753.822604 269.669836zM687.846984 609.781c-47.170323-2.601244-71.800279-28.245298-73.864288-76.975139 2.064009-52.871161 27.472702-80.594573 76.197426-83.194794 46.13269 3.109828 70.75446 30.323633 73.864288 81.640392C761.970168 581.535703 736.562499 607.703689 687.846984 609.781zM830.133617 507.926218l-23.325241 0 0 98.745978-16.327874 0 0-98.745978-17.883299 0 0-13.995759 17.883299 0 0-13.995759c-0.518816-20.72502 8.284687-30.832216 26.436092-30.323633 7.77508 0 15.282055 1.300622 22.548552 3.88754l-3.109828 12.440333c-4.665253-1.555425-9.598612-2.332115-14.772448-2.332115-9.848299-0.508583-14.513552 4.665253-13.995759 15.550161l-0.777713 14.772448 23.325241 0L830.134641 507.926218zM897.000538 465.939965c-4.665253-1.555425-9.598612-2.332115-14.772448-2.332115-9.848299-0.508583-14.513552 4.665253-13.995759 15.550161l-0.777713 14.772448 23.325241 0 0 13.995759-23.325241 0 0 98.745978-16.327874 0 0-98.745978-17.883299 0 0-13.995759 17.883299 0 0-13.995759c-0.518816-20.72502 8.284687-30.832216 26.436092-30.323633 7.77508 0 15.282055 1.300622 22.548552 3.88754L897.000538 465.939965zM688.623673 465.162252c-34.211173 3.109828-53.140291 25.148773-56.759725 66.089208 2.064009 39.922245 20.47431 61.423955 55.204299 64.534805 36.275181-2.064009 55.463196-23.580045 57.536414-64.534805C741.495858 490.311025 722.834846 468.27208 688.623673 465.162252zM285.555641 329.798285c115.979478 0 210.003921 94.02342 210.003921 210.004945 0 115.984594-94.024443 210.006991-210.003921 210.006991-115.984594 0-210.009038-94.022397-210.009038-210.006991C75.546603 423.821705 169.571047 329.798285 285.555641 329.798285z" /></svg>