<?xml version="1.0" standalone="no"?><!DOCTYPE svg PUBLIC "-//W3C//DTD SVG 1.1//EN" "http://www.w3.org/Graphics/SVG/1.1/DTD/svg11.dtd"><svg class="icon" width="32px" height="32.00px" viewBox="0 0 1024 1024" version="1.1" xmlns="http://www.w3.org/2000/svg"><path fill="#0ea800" d="M678.223301 454.270181l17.168008 0 0 115.459638-17.168008 0 0-115.459638ZM715.668121 454.270181l17.168008 0 0 115.459638-17.168008 0 0-115.459638ZM753.112941 454.270181l17.168008 0 0 115.459638-17.168008 0 0-115.459638ZM725.667869 269.772166 298.331108 269.772166c-129.246643 0-234.028081 104.782461-234.028081 234.028081l0 16.400528c0 129.246643 104.782461 234.027058 234.028081 234.027058l427.336762 0c129.246643 0 234.029104-104.781438 234.029104-234.027058l0-16.400528C959.696973 374.554628 854.913489 269.772166 725.667869 269.772166zM326.342068 570.561767c-12.141528 14.95562-29.291117 22.433942-51.450812 22.433942-22.177092 0-39.199791-7.320733-51.121308-21.976524-11.902074-14.663978-17.844413-34.336016-17.844413-59.019185 0-22.87294 5.541203-41.649586 16.619516-56.31254 12.434194-16.446577 29.875424-24.673959 52.345182-24.673959 22.323425 0 39.693024 8.145517 52.126194 24.454972 11.224646 14.809287 16.838503 33.659611 16.838503 56.531528C343.855954 536.683169 338.024132 556.209898 326.342068 570.561767zM488.550427 590.527494l-20.87954-0.019443-78.418001-135.186935-0.456395 135.205355-15.504112 0L373.29238 433.710936l19.546172 0 79.752392 137.938606 0.456395-137.938606 15.504112 0L488.55145 590.527494zM724.260823 686.74386c-96.516194 0-174.751023-78.234829-174.751023-174.74386s78.234829-174.74386 174.751023-174.74386c96.500844 0 174.735673 78.235852 174.735673 174.74386S820.760644 686.74386 724.260823 686.74386zM274.890232 444.49863c-17.222243 0-30.697139 7.102768-40.442084 21.300119-8.6848 12.56006-13.034874 27.973098-13.034874 46.201252 0 18.401092 4.278443 33.80492 12.814864 46.211485 9.726525 14.205537 23.293519 21.309328 40.662095 21.309328 17.22429 0 30.697139-7.103792 40.442084-21.309328 8.683776-12.56006 13.036921-27.964912 13.036921-46.211485 0-18.382673-4.278443-33.787524-12.81691-46.201252C305.807383 451.601398 292.259832 444.49863 274.890232 444.49863z" /></svg>